# xmcd
#
# Track frame offsets:
#   150
#   11653
#   26072
#   38407
#   49887
#   59803
#   72477
#   86765
#   97304
#   109031
#   119857
#   129247
#
# Disc length: 1886 seconds
#
# Revision: 0
# Processed by: cddbd v1.4PL0 Copyright (c) Steve Scherf et al.
# Submitted via: uFREEDB 1.6.0
#
DISCID=b1075c0c
DTITLE=Martin, Dean - Welcome To My World
DYEAR=1967
DGENRE=Country
TTITLE0=In The Chapel In The Moonlight
TTITLE1=Release Me
TTITLE2=I Can't Help Remembering You
TTITLE3=Turn To Me
TTITLE4=Wallpaper Roses
TTITLE5=Little Ole Wine Drinker, Me
TTITLE6=Green Green Grass Of Home
TTITLE7=A Place In The Shade
TTITLE8=Pride
TTITLE9=Welcome To My World
TTITLE10=Five Card Stud (Bonus)
TTITLE11=Things (with Nancy Sinatra - Bonus)
EXTD=
EXTT0=
EXTT1=
EXTT2=
EXTT3=
EXTT4=
EXTT5=
EXTT6=
EXTT7=
EXTT8=
EXTT9=
EXTT10=
EXTT11=
PLAYORDER=
